<svg width="160" height="35" viewBox="0 0 160 35" fill="none" xmlns="http://www.w3.org/2000/svg">
<g clip-path="url(#clip0_2199_94)">
<path d="M23.256 14.8805C23.6232 14.5144 23.8642 14.2727 23.8768 13.8899C23.8894 13.489 23.6414 13.2347 23.2966 12.8826L23.2714 12.8575C23.1312 12.7136 22.907 12.5236 22.5846 12.5236C22.2623 12.5236 22.0408 12.7122 21.9021 12.8547C21.3709 13.3995 20.8215 13.9458 20.2847 14.4767L20.2259 14.5354C20.0072 14.7519 19.7886 14.9699 19.57 15.1878C19.3849 15.3722 19.2013 15.5553 19.0135 15.7439V6.931C19.0135 5.88318 18.7487 5.60376 17.7283 5.57023H17.6723C17.4284 5.56045 17.1173 5.58141 16.872 5.81891C16.6253 6.05782 16.5945 6.36797 16.5959 6.61246C16.6043 9.46254 16.6057 12.3615 16.6057 15.1655V15.3233C16.6057 16.7512 16.6057 18.179 16.6057 19.5985V19.6124C16.5875 19.7465 16.5371 20.1545 16.9295 20.4493L17.3527 20.7664L23.2546 14.8791L23.256 14.8805Z" fill="#76A5DD"/>
<path d="M33.7532 5.66958C33.4252 5.3678 33.0188 5.27699 32.6081 5.41111C32.1512 5.5606 31.8709 5.91127 31.8177 6.39467C31.7897 6.65592 31.763 6.91718 31.7364 7.18542C29.4799 4.28785 26.8577 2.23971 23.9425 1.09549C20.918 -0.0906429 17.5502 -0.315575 13.9328 0.430473C7.1929 1.82058 2.63374 6.06915 0.748689 12.7151C-1.11674 19.294 0.507627 25.1814 5.57834 30.2179C6.4585 31.0925 7.50684 31.8749 8.69253 32.5455C8.89435 32.66 9.10738 32.7145 9.31201 32.7145C9.69042 32.7145 10.045 32.5273 10.2622 32.1808C10.6042 31.6346 10.4444 30.964 9.88243 30.584C9.81515 30.5392 9.74508 30.4973 9.675 30.4554C9.64417 30.4373 9.61193 30.4191 9.5811 30.3995C6.89998 28.7593 4.82292 26.3508 3.57136 23.4336C2.3212 20.5179 2.01286 17.3633 2.68139 14.312C3.80541 9.18327 7.40873 5.04647 12.3211 3.24422C17.2306 1.44337 22.6615 2.26486 26.8493 5.44185C28.0069 6.32062 28.9488 7.29719 29.7084 8.40928C29.4491 8.29471 29.1842 8.18015 28.9193 8.07397C28.3139 7.83367 27.672 8.09633 27.4253 8.6859C27.1842 9.2629 27.4295 9.91255 27.9831 10.164C29.6075 10.9059 30.9305 11.4941 32.1428 12.0152C32.482 12.1619 32.8562 12.1395 33.1688 11.9551C33.4855 11.7679 33.6887 11.4452 33.7238 11.0693C33.8359 9.87762 33.9368 8.66495 34.0335 7.49278L34.105 6.63217C34.1372 6.24238 34.0167 5.90988 33.756 5.67097L33.7532 5.66958Z" fill="#76A5DD"/>
<path d="M19.93 32.5752C19.4017 32.599 18.8298 32.6437 18.1837 32.7094C17.5685 32.7736 17.1172 33.2752 17.134 33.8787C17.1522 34.5046 17.6357 34.9741 18.2847 34.9978C18.3295 34.9992 18.3744 34.9992 18.4248 34.9992C18.4598 34.9992 18.4977 34.9992 18.5411 34.9992H18.7373L18.7682 34.9964C18.8831 34.9838 19.0064 34.9713 19.1354 34.9587C19.4605 34.9266 19.8291 34.8916 20.1935 34.8288C20.7766 34.7282 21.1732 34.2015 21.1143 33.6049C21.0555 32.9902 20.5439 32.5501 19.9272 32.5752H19.93Z" fill="#76A5DD"/>
<path d="M24.6235 31.0885C24.2969 31.2282 23.9704 31.3721 23.6452 31.5146L23.1883 31.7144C22.7384 31.91 22.4637 32.2677 22.4511 32.67V32.6742C22.4441 33.1227 22.6235 33.5097 22.9431 33.7346C23.1309 33.8673 23.3523 33.9344 23.585 33.9344C23.7335 33.9344 23.8863 33.9065 24.0391 33.852C24.5913 33.6494 25.1224 33.4007 25.6144 33.1604C26.217 32.867 26.4595 32.2034 26.1806 31.6166C25.9059 31.041 25.2514 30.8189 24.6249 31.0885H24.6235Z" fill="#76A5DD"/>
<path d="M28.8153 28.288C28.5476 28.5213 28.2813 28.7574 28.015 28.9935L27.6422 29.3246C27.275 29.6487 27.1223 30.0735 27.2358 30.4591V30.4632C27.3689 30.8922 27.6591 31.2051 28.0319 31.3211C28.2505 31.3895 28.4831 31.3853 28.7046 31.3141C28.8461 31.268 28.9835 31.1953 29.111 31.0961C29.5749 30.7343 30.0024 30.3347 30.3976 29.9561C30.8812 29.4923 30.9078 28.7867 30.4607 28.3145C30.022 27.8507 29.3311 27.8395 28.8167 28.288H28.8153Z" fill="#76A5DD"/>
<path d="M14.982 32.4786C14.2994 32.2732 13.6702 32.1168 13.0591 31.9994C12.5167 31.8946 11.9841 32.2341 11.823 32.7874C11.6604 33.3406 11.9056 33.919 12.3934 34.1328C13.0731 34.4317 13.7907 34.5617 14.4242 34.6748L14.4774 34.401L14.427 34.6762L14.4522 34.6804H14.4788C15.1123 34.6748 15.5846 34.3158 15.6813 33.7639C15.7837 33.1827 15.4823 32.6309 14.9806 32.4786H14.982Z" fill="#76A5DD"/>
<path d="M54.5987 15.9796C55.5378 16.5412 56.2637 17.3264 56.7781 18.3351C57.2925 19.3452 57.5503 20.5076 57.5503 21.8264C57.5503 23.1453 57.2967 24.2769 56.7907 25.2689C56.2848 26.2622 55.5658 27.0348 54.6352 27.588C53.7046 28.1413 52.6268 28.4179 51.4019 28.4179C50.4222 28.4179 49.556 28.2265 48.8062 27.8437C48.055 27.4609 47.4341 26.9035 46.945 26.1714V28.295H43.7607V10.1816H46.945V17.3851C47.4187 16.653 48.027 16.0955 48.7698 15.7127C49.5126 15.3299 50.3745 15.1385 51.3542 15.1385C52.5791 15.1385 53.6611 15.4193 54.6001 15.981L54.5987 15.9796ZM53.2883 24.5745C53.9736 23.834 54.317 22.8854 54.317 21.73C54.317 20.5746 53.9736 19.6302 53.2883 18.8981C52.603 18.166 51.7214 17.8 50.6436 17.8C49.5659 17.8 48.6591 18.166 47.9737 18.8981C47.2884 19.6302 46.945 20.5746 46.945 21.73C46.945 22.8854 47.2884 23.8536 47.9737 24.5871C48.6591 25.3192 49.549 25.6852 50.6436 25.6852C51.7382 25.6852 52.603 25.315 53.2883 24.5745Z" fill="#154F90"/>
<path d="M71.033 15.9796C71.972 16.5412 72.698 17.3264 73.2124 18.3351C73.7267 19.3452 73.9832 20.5076 73.9832 21.8264C73.9832 23.1453 73.7295 24.2769 73.2236 25.2689C72.7176 26.2622 71.9986 27.0348 71.068 27.588C70.1374 28.1413 69.0596 28.4179 67.8347 28.4179C66.855 28.4179 65.9889 28.2265 65.2391 27.8437C64.4879 27.4609 63.867 26.9035 63.3779 26.1714V28.295H60.1936V10.1816H63.3779V17.3851C63.8516 16.653 64.4598 16.0955 65.2027 15.7127C65.9455 15.3299 66.8074 15.1385 67.7871 15.1385C69.012 15.1385 70.094 15.4193 71.033 15.981V15.9796ZM69.7226 24.5745C70.4079 23.834 70.7513 22.8854 70.7513 21.73C70.7513 20.5746 70.4079 19.6302 69.7226 18.8981C69.0372 18.166 68.1543 17.8 67.0765 17.8C65.9987 17.8 65.0919 18.166 64.4066 18.8981C63.7212 19.6302 63.3779 20.5746 63.3779 21.73C63.3779 22.8854 63.7212 23.8536 64.4066 24.5871C65.0919 25.3192 65.9819 25.6852 67.0765 25.6852C68.1711 25.6852 69.0358 25.315 69.7226 24.5745Z" fill="#154F90"/>
<path d="M82.0925 17.9172C81.0302 17.9172 80.1696 18.2749 79.5081 18.9916C78.8466 19.7083 78.5158 20.636 78.5158 21.7746C78.5158 22.9132 78.8466 23.8912 79.5081 24.6065C80.1696 25.3232 81.0302 25.6809 82.0925 25.6809C83.6594 25.6809 84.8353 25.1681 85.6202 24.1427L87.6047 25.7787C87.0175 26.6253 86.241 27.2764 85.2782 27.7318C84.3139 28.1873 83.1955 28.415 81.9229 28.415C80.6504 28.415 79.4857 28.1384 78.4822 27.5851C77.4773 27.0319 76.6981 26.2551 76.1431 25.2534C75.588 24.2516 75.3105 23.1004 75.3105 21.7983C75.3105 20.4963 75.5922 19.3157 76.1557 18.307C76.7191 17.2983 77.5025 16.5159 78.5074 15.9627C79.5123 15.4094 80.6672 15.1328 81.9734 15.1328C83.1647 15.1328 84.2312 15.341 85.1703 15.7559C86.1093 16.1709 86.8731 16.7618 87.4604 17.526L85.5248 19.3576C84.6433 18.3978 83.4997 17.9172 82.0953 17.9172H82.0925Z" fill="#154F90"/>
<path d="M90.199 10.1816H93.3832V28.2992H90.199V10.1816Z" fill="#154F90"/>
<path d="M113.162 16.9155C114.214 18.1044 114.741 19.7726 114.741 21.9213C114.741 22.3446 114.733 22.6618 114.717 22.8741H105.043C105.254 23.8018 105.691 24.5311 106.353 25.0592C107.014 25.5887 107.826 25.8527 108.79 25.8527C109.46 25.8527 110.101 25.727 110.713 25.4741C111.326 25.2212 111.86 24.8594 112.318 24.3872L114.032 26.1699C113.379 26.8866 112.583 27.4398 111.644 27.8296C110.705 28.2208 109.663 28.415 108.521 28.415C107.183 28.415 106.003 28.1384 104.982 27.5851C103.962 27.0319 103.173 26.2551 102.618 25.2534C102.063 24.2516 101.785 23.1004 101.785 21.7983C101.785 20.4963 102.067 19.3409 102.631 18.3308C103.194 17.3221 103.982 16.5355 104.993 15.9753C106.005 15.4136 107.157 15.1328 108.447 15.1328C110.537 15.1328 112.109 15.7266 113.162 16.9155ZM111.827 20.7491C111.794 19.7893 111.476 19.0237 110.871 18.4537C110.267 17.8837 109.467 17.5987 108.471 17.5987C107.54 17.5987 106.759 17.8795 106.132 18.4411C105.502 19.0028 105.115 19.7712 104.968 20.7491H111.826H111.827Z" fill="#154F90"/>
<path d="M128.677 16.466C129.542 17.3699 129.975 18.5937 129.975 20.1403V28.2951H126.767V21.068C126.767 20.1571 126.506 19.4362 125.983 18.9067C125.46 18.3786 124.75 18.1131 123.851 18.1131C122.79 18.1299 121.954 18.4875 121.341 19.1875C120.729 19.8874 120.423 20.783 120.423 21.8727V28.2937H117.239V15.2309H120.423V17.673C121.322 15.9965 122.889 15.1415 125.125 15.1094C126.628 15.1094 127.811 15.5606 128.677 16.4646V16.466Z" fill="#154F90"/>
<path d="M148.223 18.1157C149.203 18.5557 149.958 19.1691 150.49 19.9584C151.019 20.7478 151.286 21.6391 151.286 22.6325C151.286 23.7879 151.008 24.8049 150.453 25.6851C149.898 26.5639 149.115 27.2443 148.101 27.7235C147.088 28.2041 145.914 28.4444 144.574 28.4444C143.496 28.4444 142.373 28.2614 141.206 27.8953C140.038 27.5293 139.006 27.0375 138.107 26.4186L139.405 23.8549C140.139 24.4249 140.923 24.8678 141.757 25.185C142.589 25.5021 143.422 25.6614 144.256 25.6614C145.333 25.6614 146.187 25.4141 146.815 24.9167C147.443 24.4207 147.758 23.7404 147.758 22.8784C147.758 22.0163 147.448 21.4058 146.827 20.949C146.207 20.4935 145.284 20.2658 144.059 20.2658C143.472 20.2658 142.696 20.2867 141.733 20.3273C140.769 20.3678 140.026 20.4125 139.504 20.4614V11.207H150.526V14.0641H142.542V17.4576H144.819C146.108 17.4576 147.244 17.677 148.223 18.1171V18.1157Z" fill="#154F90"/>
<path d="M156.235 9.74023L159.446 12.0315L156.158 16.6572L153.563 16.2088L156.235 9.74163V9.74023Z" fill="#154F90"/>
</g>
<defs>
<clipPath id="clip0_2199_94">
<rect width="159.444" height="35" fill="white"/>
</clipPath>
</defs>
</svg>
